# xmcd
#
# Track frame offsets:
#	150
#	13084
#	29914
#	46019
#	56144
#	71025
#	86002
#	106041
#	119226
#	130373
#	145076
#	160020
#	173650
#	198102
#	213441
#	230278
#	253824
#
# Disc length: 3390 seconds
#
# Revision: 0
# Processed by: cddbd v1.5.1PL2 Copyright (c) Steve Scherf et al.
# Submitted via: EasyCDDAExtractor 8.2.3.1
#
DISCID=f30d3c11
DTITLE=Wolfe Bros. - Old Roads - New Journeys
DYEAR=2004
DGENRE=Old-Time
TTITLE0=Diamond Joe
TTITLE1=Democratic Donkey
TTITLE2=Clark Hill Waltz
TTITLE3=Grey Eagle
TTITLE4=Gal in the Galax Jail
TTITLE5=Natural Bridge Blues
TTITLE6=When I Can Read My Titles Clear
TTITLE7=I'm Too Young To Marry
TTITLE8=Honey, I'm Ramblin' Away
TTITLE9=White River
TTITLE10=On the Other Side of the Mountain
TTITLE11=New Gal
TTITLE12=Hills of Mexico
TTITLE13=If I Lose
TTITLE14=Jedediah
TTITLE15=Headin' Up Elk Creek
TTITLE16=Lyrics (Text)
EXTD=
EXTT0=
EXTT1=
EXTT2=
EXTT3=
EXTT4=
EXTT5=
EXTT6=
EXTT7=
EXTT8=
EXTT9=
EXTT10=
EXTT11=
EXTT12=
EXTT13=
EXTT14=
EXTT15=
EXTT16=
PLAYORDER=
